<svg width="800" height="800" xmlns="http://www.w3.org/2000/svg">

 <g>
  <title>Layer 1</title>
  <ellipse ry="209" rx="155.5" id="svg_7" cy="303" cx="247.5" stroke="#000" fill="#fff"/>
  <ellipse ry="209" rx="155.5" id="svg_9" cy="303" cx="348.5" stroke="#000" fill="#fff"/>
  <path d="m256,91c2,1 4,2 5,2c1,0 3.92578,0.49755 9,1c1.99026,0.19707 5,0 6,0c3,0 6,0 9,0c5,0 11,0 14,0c5,0 10,0 14,0c3,0 6.02432,-0.49269 11,0c5.07422,0.50245 11,2 17,2c2,0 6,1 8,1l2,0l1,0" id="svg_10" stroke="#000" fill="none"/>
  <path d="m254,512c0,0 -1.70711,1.29291 -1,2c0.70711,0.70709 5,0 10,0c3,0 4,0 5,0c3,0 6,0 7,0c2,0 5,0 7,0c2,0 4,0 9,0c4,0 7,0 12,0c4,0 8,0 11,0c3,0 5.01947,-0.60583 9,-1c5.07422,-0.50244 8,-2 10,-2c2,0 2.87857,-0.49347 6,-1c0.98709,-0.16019 2,0 5,0l3,-2l1,0" id="svg_11" stroke="#000" fill="none"/>
  <ellipse ry="62.5" rx="36" id="svg_13" cy="299.5" cx="361" stroke="#000" fill="#fff"/>
  <path d="m349,237c0,0 1.29291,0.70711 2,0c0.70709,-0.70711 0,-2 0,-3c0,-1 0,-2 0,-4c0,-2 0,-3 0,-7c0,-1 -0.22977,-4.02675 0,-5c0.51373,-2.17625 0.61731,-4.07613 1,-5c0.5412,-1.30656 0.69254,-2.186 2,-4c0.8269,-1.14726 1.77023,-2.02675 2,-3c0.51373,-2.17625 2.1731,-3.85274 3,-5c1.30746,-1.814 1.85272,-3.1731 3,-4c1.814,-1.30745 3.71411,-4.21167 6,-7c2.68979,-3.28101 4,-3 6,-5c1,-1 3.1731,-2.85274 4,-4c1.30746,-1.814 3.85272,-4.1731 5,-5c1.814,-1.30745 2.70547,-2.34619 5,-4c1.814,-1.30745 3,-2 5,-3c2,-1 3,-2 5,-2c3,0 6.54916,-1.95517 10,-3c1.91418,-0.57957 5,0 6,0c1,0 3,-1 4,-1c1,0 2,0 3,0c1,0 5,0 6,0c2,0 3,0 5,0c1,0 2,0 3,0c1,0 2.07611,0.61731 3,1c1.30655,0.5412 2,2 4,4c2,2 3,2 4,3c1,1 3,4 4,5c1,1 2.85272,3.1731 4,4c1.814,1.30745 3.1731,1.85274 4,3c1.30746,1.814 1.186,2.69255 3,4c2.29453,1.65381 3,3 4,4c1,1 1.48627,1.82375 2,4c0.22977,0.97325 -0.22977,3.02675 0,4c0.51373,2.17625 2,3 3,4c1,1 1.48627,2.82375 2,5c0.22977,0.97325 0,3 0,4c0,1 0,2 0,3c0,1 0,3 0,4c0,1 0,2 0,5c0,2 0.30655,4.4588 -1,5c-0.92389,0.38269 -1,1 -2,2c-1,1 -1.69345,2.4588 -3,3c-0.92389,0.38269 -2,1 -3,1c-1,0 -2,1 -3,1c-2,0 -3,0 -4,0c-2,0 -3.29291,0.29289 -4,1c-0.70709,0.70711 -2,0 -3,0c-1,0 -3,0 -5,0c-2,0 -3.07611,-0.38269 -4,0c-1.30655,0.5412 -2.0535,0.5405 -4,1c-2.17624,0.51375 -3,1 -4,1c-1,0 -2,0 -4,0c-2,0 -2.82376,0.48625 -5,1c-0.97324,0.22975 -2,1 -3,1c-1,0 -1.82376,0.48625 -4,1c-0.97324,0.22975 -2,0 -3,1c-1,1 -1.61731,2.07613 -2,3c-0.5412,1.30656 -1.85272,1.1731 -3,2c-1.814,1.30745 -3,2 -5,4c-1,1 -3.61731,2.07613 -4,3c-0.5412,1.30655 -2,2 -3,3l-1,1" id="svg_14" stroke="#000" fill="none"/>
  <path d="m398,316c1,1 2.4588,0.69345 3,2c0.38269,0.92389 2.9176,2.38687 4,5c0.38269,0.92389 1.2565,1.797 2,3c1.66251,2.69 1.38687,5.9176 4,7c0.92389,0.38269 1.75565,2.01498 2,4c0.50378,4.09222 2.49347,7.87857 3,11c0.32037,1.97418 0,4 1,7c1,3 1,6 1,10c0,2 0,5 0,7c0,1 1,3 1,4c0,2 0,5 0,7c0,1 0,4 0,5c0,1 0,2 0,5c0,3 0,6 0,8c0,2 0.38269,4.07611 0,5c-1.0824,2.61313 -3.23462,4.15225 -4,6c-1.0824,2.61313 -1.78986,3.07843 -3,6c-0.85571,2.06586 -2.2565,3.797 -3,5c-1.66251,2.69 -1,4 -2,6c-1,2 -2,4 -3,5c-1,1 -1.53238,2.19891 -3,5c-2.32053,4.42889 -4.37134,5.74673 -7,10c-1.17557,1.9021 -2.82376,3.48627 -5,4c-0.97324,0.22977 -3.186,0.69254 -5,2c-2.29453,1.65381 -3.02582,2.67963 -5,3c-3.12143,0.50653 -4.87857,1.49347 -8,2c-1.97418,0.32037 -4,0 -8,0c-2,0 -4,0 -6,0c-1,0 -3,0 -5,0c-1,0 -4,-1 -7,-4c-3,-3 -7,-6 -8,-7c-1,-1 -1.70547,-2.34619 -4,-4c-1.814,-1.30746 -4,-3 -5,-4c-1,-1 -1,-3 -1,-7c0,-7 0,-10 0,-13c0,-2 0.69254,-4.186 2,-6c1.65381,-2.29453 2.71411,-4.21167 5,-7c0.89661,-1.09366 1.61731,-3.07611 2,-4c0.5412,-1.30655 2,-1 4,-3c1,-1 2.21167,-1.71411 5,-4c1.09366,-0.89661 4.82376,-1.48627 7,-2c0.97324,-0.22977 2.82376,-1.48627 5,-2c3.89301,-0.91901 8.02582,-1.67963 10,-2c3.12143,-0.50653 4.186,-1.69254 6,-3c1.14728,-0.8269 2.34619,-1.70547 4,-4c1.30746,-1.814 2.186,-2.69254 4,-4c2.29453,-1.65381 3.77023,-5.02676 4,-6c0.51373,-2.17624 1.49622,-3.90778 2,-8c0.48874,-3.97003 0,-5 0,-7c0,-3 0,-6 0,-8l0,-1l0,-1" id="svg_15" stroke="#000" fill="none"/>
  <path d="m324,306c-1,0 -2.88495,1.27432 -5,2c-4.82303,1.65482 -7,1 -8,1c-2,0 -3,0 -4,0c-1,0 -2,0 -4,0c-2,0 -3,0 -6,0c-3,0 -5.797,-1.2565 -7,-2c-2.69,-1.66251 -3.38687,-3.9176 -6,-5c-1.84775,-0.76538 -4.21167,-0.71411 -7,-3c-1.09366,-0.89661 -1.69345,-2.4588 -3,-3c-0.92389,-0.38269 -3,-2 -5,-4c-2,-2 -2.32367,-2.52017 -4,-4c-2.703,-2.38617 -4,-5 -6,-7c-1,-1 -2.69254,-2.186 -4,-4c-0.8269,-1.14728 -2.14429,-2.93414 -3,-5c-1.21014,-2.92157 -1.61731,-4.07611 -2,-5c-1.0824,-2.61313 -3.9176,-3.38687 -5,-6c-0.38269,-0.92389 -1.4588,-2.69345 -2,-4c-0.38269,-0.92389 -1,-4 -1,-5c0,-1 0,-3 0,-5c0,-2 0,-3 0,-5c0,-3 -0.24437,-6.01498 0,-8c0.50377,-4.09221 1.83981,-6.01291 2,-7c0.50655,-3.12144 1.5405,-5.0535 2,-7c0.51375,-2.17625 2.23463,-5.15224 3,-7c0.5412,-1.30656 1.33749,-2.31001 3,-5c0.7435,-1.203 3,-4 5,-6c1,-1 2.61731,-2.07613 3,-3c0.5412,-1.30656 2,-2 3,-3c1,-1 1.69345,-2.4588 3,-3c0.92389,-0.38269 2,-1 3,-1c1,0 1.29291,-1.29289 2,-2c1.41422,-1.41422 4,0 5,0c1,0 2.07611,0.38269 3,0c1.30655,-0.5412 2.01291,-0.83981 3,-1c3.12143,-0.50655 3.69345,-1.4588 5,-2c0.92389,-0.38269 2,0 4,0c1,0 2,0 3,0c1,0 2.186,-0.30745 4,1c1.14728,0.8269 2.186,1.69255 4,3c1.14728,0.8269 1,2 2,3c1,1 2,2 4,4c1,1 1.77023,3.02675 2,4c0.51373,2.17625 2,4 2,6c0,1 0.77023,2.02675 1,3c0.51373,2.17625 0.67963,3.02582 1,5c0.50653,3.12144 1.61731,6.07613 2,7c0.5412,1.30656 1,3 1,4c0,2 0,5 0,7c0,1 0,4 0,7c0,3 0,6 0,8c0,2 0.61731,3.07613 1,4c0.5412,1.30656 1.4588,2.69344 2,4c0.38269,0.92389 1,2 2,3c1,1 2,2 3,3l1,1l1,0" id="svg_17" stroke="#000" fill="none"/>
  <text transform="matrix(2.19054 0 0 2.7987 -596.461 -990.597)" stroke="#000" font-style="italic" font-weight="bold" xml:space="preserve" text-anchor="start" font-family="Noto Sans JP" font-size="24" stroke-width="0" id="svg_19" y="576" x="501" fill="#000000">SEM</text>
 </g>
</svg>