<svg width="800" height="800" xmlns="http://www.w3.org/2000/svg">

 <g>
  <title>Layer 1</title>
  <ellipse ry="21.5" rx="21.5" id="svg_7" cy="82.5" cx="94.5" stroke="#000" fill="none"/>
  <line id="svg_10" y2="79" x2="358" y1="81" x1="115" stroke="#000" fill="none"/>
  <line id="svg_11" y2="151" x2="418" y1="78" x1="355" stroke="#000" fill="none"/>
  <line id="svg_14" y2="152" x2="647" y1="150" x1="416" stroke="#000" fill="none"/>
  <ellipse ry="30.5" rx="32" id="svg_15" cy="152.5" cx="678" stroke="#000" fill="none"/>
  <ellipse ry="20" rx="21" id="svg_17" cy="187" cx="97" stroke="#000" fill="none"/>
  <ellipse ry="22" rx="22.5" id="svg_18" cy="266" cx="98.5" stroke="#000" fill="none"/>
  <path d="m119,184c0,1 1,1 2,1c1,0 4.90778,0.49623 9,1c4.96254,0.61092 8,0 11,0c1,0 5,1 7,1c3,0 5,0 6,0c3,0 6,0 7,0c2,0 4,0 8,0c4,0 7,0 11,0c3,0 6,0 10,0c4,0 9,0 14,0c4,0 8,0 10,0c5,0 8.9258,-0.49756 14,-1c4.97566,-0.49269 7.9258,-0.49756 13,-1c2.9854,-0.29561 7,0 12,0c10,0 16,0 20,0c4,0 8,0 14,0c7,0 12.94672,-0.49873 20,-1c4.98743,-0.35445 7,0 13,0c4,0 9,0 15,0c7,0 14,0 19,0c3,0 5,0 6,0c1,0 3,0 7,0c5,0 13.07278,4.8819 18,8c3.04672,1.92807 5.38687,4.9176 8,6c2.77164,1.14806 5.5582,3.51929 9,6c1.814,1.30745 5.4588,3.69344 6,5c0.38269,0.92387 2,4 4,7c2,3 3,6 4,10c1,4 1,7 1,11c0,1 0,3 0,6c0,1 -0.31021,4.71899 -3,8c-2.28589,2.78833 -3,5 -5,7c-2,2 -4,3 -6,5c-2,2 -4.74673,3.37134 -9,6c-3.80423,2.35114 -7,4 -10,5c-3,1 -8.94366,3.18835 -12,4c-4.92819,1.30875 -7.93796,2.49829 -14,3c-3.98636,0.32993 -6.54916,0.95517 -10,2c-2.87128,0.86935 -8.01208,-0.0813 -15,1c-6.01123,0.93018 -11,1 -15,1c-5,0 -8,0 -12,0c-4,0 -9,0 -15,0c-3,0 -7,0 -11,0c-4,0 -9,0 -13,0c-5,0 -10,0 -14,0c-4,0 -6,0 -10,0c-5,0 -10,0 -15,0c-3,0 -7,0 -10,0c-3,0 -7.02248,0.36655 -10,0c-4.09221,-0.50378 -8.04468,-0.76138 -14,-2c-4.03671,-0.8396 -5.86829,-2.28857 -10,-4c-2.92157,-1.21014 -5.80565,-1.44839 -10,-3c-3.867,-1.43048 -7.31001,-1.33749 -10,-3c-1.203,-0.7435 -2,-1 -3,-1c-2,0 -3.90283,-1.22421 -6,-2c-3.867,-1.43048 -6,-1 -8,-1c-3,0 -5.69344,-0.4588 -7,-1c-0.92387,-0.38269 -4.96384,-0.11588 -8,-1c-3.95868,-1.15277 -5,-1 -6,-1l-2,0" id="svg_19" stroke="#000" fill="none"/>
  <ellipse ry="28" rx="26.5" id="svg_20" cy="364" cx="109.5" stroke="#000" fill="none"/>
  <line id="svg_21" y2="355" x2="436" y1="363" x1="135" stroke="#000" fill="none"/>
  <line stroke="#000" id="svg_23" y2="256" x2="493" y1="354" x1="437" fill="none"/>
  <line id="svg_24" y2="252" x2="650" y1="256" x1="492" stroke="#000" fill="none"/>
  <ellipse ry="30" rx="30.5" id="svg_25" cy="252" cx="682.5" stroke="#000" fill="none"/>
  <text transform="matrix(3.02341 0 0 3.7108 -1056.22 -1424.85)" stroke="#000" font-style="italic" font-weight="bold" xml:space="preserve" text-anchor="start" font-family="Noto Sans JP" font-size="24" stroke-width="0" id="svg_27" y="551" x="522" fill="#000000">SEM</text>
 </g>
</svg>