<svg width="800" height="800" xmlns="http://www.w3.org/2000/svg">

 <g>
  <title>Layer 1</title>
  <path stroke="#000" id="svg_1" d="m383.00001,235c-135.35912,0 -245,-32.66851 -245,-73c0,-40.33149 109.64089,-73 245,-73c135.35912,0 245,32.66851 245,73c0,40.33149 -109.64089,73 -245,73z" opacity="undefined" fill="#fff"/>
  <path stroke="#000" id="svg_3" d="m357.00001,525c-135.35912,0 -245.00001,-32.66851 -245.00001,-73c0,-40.3315 109.64089,-73.00001 245.00001,-73.00001c135.35911,0 245,32.66851 245,73.00001c0,40.33149 -109.64089,73 -245,73z" opacity="undefined" fill="#fff"/>
  <line id="svg_4" y2="453" x2="112" y1="160" x1="138" stroke="#000" fill="none"/>
  <line id="svg_5" y2="467" x2="601" y1="166" x1="627" stroke="#000" fill="none"/>
  <ellipse ry="13" rx="53" id="svg_6" cy="157" cx="387" stroke="#000" fill="#fff"/>
  <ellipse ry="13" rx="53" id="svg_7" cy="451" cx="345" stroke="#000" fill="#fff"/>
  <path d="m360,154c0,0 1.186,0.69255 3,2c1.14728,0.8269 2,2 3,3c1,1 2.1731,1.85274 3,3c1.30746,1.814 2.14429,3.93414 3,6c1.21014,2.92157 1.4588,4.69344 2,6c0.38269,0.92387 -0.24435,3.01498 0,5c0.50378,4.09221 1,6 1,8c0,1 1,3 1,5c0,2 1,5 1,6c0,1 0,2 0,4c0,1 -0.38269,3.07613 0,4c0.5412,1.30656 0.69254,2.186 2,4c0.8269,1.14726 2,2 3,3c1,1 1.69345,2.4588 3,3c0.92389,0.38269 2,0 3,0c2,0 3,0 4,-1c1,-1 0.61731,-3.07613 1,-4c0.5412,-1.30656 1,-2 1,-3c0,-1 0,-2 0,-3c0,-1 0,-3 0,-4c0,-1 0,-3 0,-5c0,-2 0,-3 0,-6c0,-3 0,-4 0,-5c0,-1 0,-3 0,-5c0,-1 0,-3 0,-4c0,-1 0.29291,-1.29289 1,-2c0.70709,-0.70711 1.48627,-2.82375 2,-5c0.4595,-1.9465 0,-3 1,-4c1,-1 0.29291,-2.29289 1,-3c0.70709,-0.70711 1.69345,-1.4588 3,-2c0.92389,-0.38269 2,-1 3,-1l1,0l1,0" id="svg_17" stroke="#000" fill="none"/>
  <path d="m378,211c0,1 -2.69238,3.41092 -6,8c-3.92236,5.44197 -6.29291,9.29289 -7,10c-0.70709,0.70711 -1.1731,1.85274 -2,3c-1.30746,1.814 -2,5 -3,6c-1,1 -2,2 -3,3c-1,1 -1,2 -3,4c-1,1 -1.1731,1.85274 -2,3c-1.30746,1.814 -0.71021,4.04291 -1,5c-1.04483,3.45084 -2.48627,4.82376 -3,7c-0.22977,0.97324 0,4 0,5c0,2 0.21014,5.07843 -1,8c-0.85571,2.06586 -1,4 -1,7c0,3 0,6 0,7c0,2 0,5 0,7c0,4 0,6 0,7c0,1 0,3 0,4c0,3 0,6 0,7c0,2 0,4 0,7c0,1 0,3 0,4c0,1 0,2 0,5c0,2 0,5 0,8c0,1 0,2 0,3c0,1 0,4 0,5c0,2 0,5 0,7c0,3 0,4 0,5c0,2 0,6 0,9c0,2 0,4 0,7c0,2 0,4 0,5c0,5 0.4588,7.69345 1,9c0.38269,0.92389 0,2 0,3c0,3 0,7 0,10c0,1 0,3 0,4c0,1 0,3 0,5c0,4 0,6 0,8c0,2 0,3 0,5c0,1 -0.49347,2.87857 -1,6c-0.32037,1.97418 0,5 0,7c0,2 0,3 0,5c0,4 0,7 0,9l0,1l0,1" id="svg_18" stroke="#000" fill="none"/>
  <path d="m393,211c0,1 0,3 0,5c0,1 0,2 0,5c0,5 0,9 0,16c0,6 0,11 0,18c0,11 0,20 0,31c0,15 0,23 0,30c0,10 0.78345,19.13748 -1,27c-1.39905,6.16788 -3.82462,13.06134 -6,19c-1.85226,5.05658 -5.51059,19.05551 -7,30c-1.5076,11.07822 -3.13083,17.95798 -5,24c-2.15158,6.9549 -2.91232,12.03067 -4,15c-1.85226,5.05658 -3.19028,7.88153 -5,11c-1.12234,1.93399 -2.29291,5.29291 -3,6c-0.70709,0.70709 -1,2 -2,3l-1,-1l-1,-3" id="svg_19" stroke="#000" fill="none"/>
  <path d="m361,197c-4,1 -6,1 -7,1c-1,0 -1.88495,1.27431 -4,2c-4.82303,1.65482 -9.133,2.5695 -13,4c-8.3887,3.10318 -12.04733,6.93788 -16,10c-5.06186,3.92142 -11.65131,8.28702 -15,12c-3.90521,4.33005 -6.25195,9.88051 -9,16c-2.20605,4.91257 -3.34686,10.92987 -5,20c-1.26791,6.95648 -3.50897,18.59592 1,32c3.28259,9.7583 9.27765,20.53488 12,30c1.95453,6.79556 4,15 8,23c3,6 5.2709,11.90356 8,20c3.33481,9.89337 8.42471,20.12476 10,26c2.21268,8.25253 10.49756,18.92578 11,24c0.39417,3.98053 -0.49268,9.02432 0,14c0.50244,5.07422 3.9725,10.64749 5,15c0.68927,2.91974 1,5 1,6l1,0" id="svg_20" stroke="#000" fill="none"/>
  <path d="m402,191c0,1 4.90024,7.31935 10,15c4.94751,7.45132 9.8902,11.22578 15,18c6.19998,8.2195 12.17755,18.91447 15,25c3.20432,6.90886 6.14981,17.97382 8,29c2.17664,12.97159 4.29089,27.48062 -1,47c-4.22656,15.59283 -12.82779,29.5256 -20,43c-5.67743,10.66614 -10.64011,18.20956 -16,27c-5.63113,9.23529 -14.38635,17.57663 -21,24c-10.66418,10.35736 -17,20 -20,23c-2,2 -4.83505,8.11328 -9,14c-2.88785,4.0817 -3,6 -4,7l0,3l0,2" id="svg_21" stroke="#000" fill="none"/>
  <path d="m338,180c0,0 -1,0 -7,3c-4,2 -9.98807,4.04221 -17,6c-10.98172,3.06621 -19.33002,5.38829 -29,11c-6.23697,3.61945 -13.05148,6.95619 -19,14c-3.76218,4.4549 -7.76859,10.6129 -10,16c-1.57785,3.80925 -1,12 -1,18c0,7 -0.61751,15.14359 2,25c2.43497,9.16901 8.84799,17.48914 14,27c3.62744,6.69641 6.724,14.22272 10,18c2.77979,3.20511 6.58408,8.55798 11,15c5.82114,8.492 10.62784,20.20737 18,33c7.62158,13.2254 17.16873,27.54044 21,39c2.92334,8.7438 2.36743,15.1853 5,23c2.4313,7.21725 6,15 7,18l0,1" id="svg_23" stroke="#000" fill="none"/>
  <path d="m389,196c0,4 0,10 0,13c0,5 -0.45291,17.93835 -2,31c-1.41635,11.95801 -2.64581,23.05148 -5,38c-1.73932,11.04422 -4.49963,23.97119 -5,37c-0.38376,9.99265 -2.49979,19.97797 -3,37c-0.38187,12.99438 0,24 0,36c0,6 0,12 0,18c0,5 0,8 0,10l0,1l0,1l0,1" id="svg_24" stroke="#000" fill="none"/>
  <path d="m394,188c2,0 4,1 8,3c4,2 10,6 13,8c6,4 8.51779,6.42726 13,11c5.46719,5.57762 11.16656,11.37999 15,20c2.95822,6.65198 6.04523,13.26505 10,20c7.05276,12.01077 10.02536,21.6796 13,33c1.54587,5.88306 1.66821,13.00919 2,19c0.50076,9.04153 1,22 1,30c0,6 0,12 0,17c0,5 0,10 0,17c0,4 0.08768,9.03067 -1,12c-1.85226,5.05658 -3.60645,7.5387 -5,10c-2.03146,3.58792 -3,5 -5,7c-2,2 -3.56723,5.28326 -5,7c-3.20374,3.83875 -8.08743,5.79395 -13,8c-2.03983,0.91602 -3.74673,3.37134 -8,6c-1.9021,1.17557 -6.08743,3.79395 -11,6c-4.07965,1.83203 -7.17572,5.60703 -12,8c-5.22363,2.59106 -10.11499,5.539 -19,8c-6.09506,1.68823 -8.82376,4.48627 -11,5c-0.97324,0.22977 -2.87857,1.49347 -6,2c-0.98709,0.16019 -2,1 -4,3l-1,1l-2,1" id="svg_25" stroke="#000" fill="none"/>
  <text transform="matrix(2.86888 0 0 2.75597 -598.65 -1102.39)" stroke="#000" font-style="italic" xml:space="preserve" text-anchor="start" font-family="'Gluten'" font-size="24" stroke-width="0" id="svg_26" y="646" x="384" fill="#000000">SEM</text>
 </g>
</svg>